External Loads File
version=1
nRows=62
nColumns=13
Range=5.000000e-03-10 seconds
endheader
time 	forceRightX 	forceRightY 	forceRightZ 	pointRightX 	pointRightY 	pointRightZ 	forceLeftX 	forceLeftY 	forceLeftZ 	pointLeftX 	pointLeftY 	pointLeftZ 		
5.005000 279.188998 395.032838 -0.000000 0.139508 0.138329 -0.119198 -103.992124 15.026935 -0.000000 0.304974 0.460430 -0.365669
5.010000 243.780985 315.630963 -0.000000 0.132891 0.142504 -0.119257 -89.783436 32.741660 -0.000000 0.311840 0.456304 -0.366512
5.015000 204.047353 233.477138 -0.000000 0.127142 0.147098 -0.119361 -75.619060 52.420688 -0.000000 0.317981 0.451813 -0.366892
5.020000 161.478747 150.220645 -0.000000 0.121870 0.152102 -0.119349 -62.185363 74.469455 -0.000000 0.323616 0.446881 -0.367334
5.025000 116.798707 67.924123 -0.000000 0.117258 0.157403 -0.119325 -50.322869 99.058026 -0.000000 0.328608 0.441715 -0.367386
5.030000 70.925506 -12.098640 -0.000000 0.112974 0.162826 -0.119175 -40.691996 126.539191 -0.000000 0.333040 0.436089 -0.367349
5.035000 24.175900 -88.666476 -0.000000 0.108877 0.168572 -0.119021 -33.730854 157.210113 -0.000000 0.337034 0.429815 -0.367539
5.040000 -23.763048 -160.248504 -0.000000 0.104780 0.175354 -0.119108 -29.487318 191.191113 -0.000000 0.340696 0.422906 -0.367747
5.045000 -73.416925 -224.286378 -0.000000 0.099875 0.182935 -0.120521 -27.637481 228.268892 -0.000000 0.344140 0.415271 -0.367945
5.050000 -122.947933 -277.793991 -0.000000 0.096202 0.190750 -0.120994 -29.107548 267.676539 -0.000000 0.347384 0.406862 -0.368030
5.055000 -170.814103 -316.829414 -0.000000 0.092932 0.198846 -0.121529 -32.779048 308.525199 -0.000000 0.350236 0.397066 -0.368225
5.060000 -212.270421 -338.840202 -0.000000 0.089946 0.206932 -0.122037 -39.231345 349.451724 -0.000000 0.352950 0.387657 -0.368294
5.065000 -244.177887 -341.842738 -0.000000 0.086967 0.215314 -0.122059 -46.812794 389.212390 -0.000000 0.355188 0.377699 -0.368247
5.070000 -263.058891 -326.701961 -0.000000 0.084178 0.224147 -0.122011 -54.666289 426.584985 -0.000000 0.356978 0.367364 -0.368181
5.075000 -267.085702 -296.721794 -0.000000 0.081630 0.233685 -0.121750 -61.997257 460.696028 -0.000000 0.358306 0.356921 -0.367946
5.080000 -256.488810 -257.039562 -0.000000 0.079521 0.243858 -0.121486 -68.391104 491.140795 -0.000000 0.359185 0.346417 -0.367786
5.085000 -233.950759 -212.900090 -0.000000 0.077745 0.254662 -0.121368 -72.722218 518.121803 -0.000000 0.359818 0.335580 -0.367521
5.090000 -202.841320 -169.589552 -0.000000 0.076685 0.266004 -0.121246 -75.175813 542.012129 -0.000000 0.359715 0.324524 -0.367129
5.095000 -167.303950 -130.648922 -0.000000 0.076183 0.277631 -0.121296 -75.557997 563.404006 -0.000000 0.359082 0.313329 -0.367506
5.100000 -133.227555 -94.970136 -0.000000 0.076455 0.289537 -0.121290 -61.034743 584.400210 -0.000000 0.358199 0.296011 -0.367197
5.105000 -99.249264 -68.571664 -0.000000 0.077501 0.301286 -0.121798 -52.034988 603.024073 -0.000000 0.356811 0.282433 -0.367225
5.110000 -66.986709 -51.180218 -0.000000 0.079439 0.312610 -0.122049 -66.715263 618.636739 -0.000000 0.354793 0.280168 -0.366937
5.115000 -41.710130 -35.486068 -0.000000 0.081818 0.323806 -0.122524 -61.068929 636.299775 -0.000000 0.352011 0.269411 -0.366553
5.120000 -21.286033 -23.857123 -0.000000 0.084898 0.334758 -0.122882 -54.419773 654.766777 -0.000000 0.348588 0.259167 -0.366096
5.125000 -5.582207 -15.789170 -0.000000 0.088539 0.345562 -0.123146 -45.176636 674.749438 -0.000000 0.344532 0.248985 -0.365844
5.130000 5.640823 -11.024666 -0.000000 0.092805 0.356226 -0.123427 -33.021753 696.560815 -0.000000 0.339961 0.238904 -0.365664
5.135000 12.586275 -9.212783 -0.000000 0.097685 0.366596 -0.123625 -18.662487 720.181929 -0.000000 0.334775 0.229287 -0.365494
5.140000 15.434340 -9.813348 -0.000000 0.103146 0.376784 -0.123879 -1.351679 745.384988 -0.000000 0.328967 0.220100 -0.365232
5.145000 14.432358 -12.063402 -0.000000 0.109291 0.386723 -0.124113 19.969533 771.605412 -0.000000 0.322499 0.211085 -0.364992
5.150000 10.087925 -14.888518 -0.000000 0.116009 0.396142 -0.124253 39.698067 798.266203 -0.000000 0.317614 0.202651 -0.361837
5.155000 2.810339 -17.398072 -0.000000 0.123046 0.404976 -0.124568 69.524741 823.799730 -0.000000 0.308132 0.194578 -0.364419
5.160000 -6.392744 -18.582895 -0.000000 0.131169 0.413022 -0.124563 98.836458 847.558011 -0.000000 0.300148 0.187003 -0.364160
5.165000 -16.682181 -18.057128 -0.000000 0.139424 0.420474 -0.124810 129.161257 868.348438 -0.000000 0.291771 0.180010 -0.363968
5.170000 -27.337292 -15.896206 -0.000000 0.148241 0.427010 -0.125042 160.394895 885.029596 -0.000000 0.283114 0.173543 -0.363838
5.175000 -37.892668 -12.522643 -0.000000 0.157425 0.433321 -0.125261 192.446097 896.495842 -0.000000 0.274206 0.167605 -0.363636
5.180000 -48.098008 -8.623270 -0.000000 0.166991 0.438843 -0.125654 223.442050 902.225482 -0.000000 0.265134 0.162276 -0.363466
5.185000 -57.881558 -4.930931 -0.000000 0.176683 0.443856 -0.125436 252.408508 901.884634 -0.000000 0.255882 0.157434 -0.363422
5.190000 -67.253879 -2.446528 -0.000000 0.186657 0.448254 -0.125902 273.843693 896.814018 -0.000000 0.248268 0.153116 -0.360520
5.195000 -76.330304 -0.383898 -0.000000 0.196916 0.452206 -0.126230 302.783863 882.154068 -0.000000 0.236895 0.149307 -0.363121
5.200000 -85.153187 -0.077948 -0.000000 0.207175 0.455431 -0.126185 321.797805 863.276702 -0.000000 0.227388 0.146191 -0.363140
5.205000 -93.736945 -0.775610 -0.000000 0.217351 0.458263 -0.126477 336.312304 838.587735 -0.000000 0.217817 0.143661 -0.363164
5.210000 -101.907351 -1.800522 -0.000000 0.227659 0.460350 -0.126754 346.724555 808.061639 -0.000000 0.208237 0.141669 -0.363341
5.215000 -109.274205 -2.448751 -0.000000 0.238015 0.461873 -0.127160 352.855441 771.934990 -0.000000 0.198692 0.140481 -0.363424
5.220000 -115.305474 -2.063735 -0.000000 0.248554 0.462601 -0.127249 354.978168 730.236488 -0.000000 0.189279 0.139973 -0.363530
5.225000 -119.471551 -0.564516 -0.000000 0.258377 0.462591 -0.127512 351.231653 684.035348 -0.000000 0.180026 0.139977 -0.363614
5.230000 -121.354142 2.592807 -0.000000 0.268370 0.461947 -0.127566 343.949211 632.379770 -0.000000 0.170828 0.140556 -0.363724
5.235000 -120.618758 7.382930 -0.000000 0.278144 0.460605 -0.127460 332.636584 575.818392 -0.000000 0.161712 0.142000 -0.363662
5.240000 -117.024099 13.798510 -0.000000 0.287653 0.458619 -0.127585 317.376913 514.864063 -0.000000 0.152719 0.144280 -0.363718
5.245000 -110.487475 21.709258 -0.000000 0.296658 0.456280 -0.127116 297.866775 450.601847 -0.000000 0.144012 0.147499 -0.363657
5.250000 -101.101648 31.231199 -0.000000 0.304971 0.453337 -0.127006 274.589181 383.959171 -0.000000 0.135552 0.151490 -0.363461
5.255000 -89.060661 42.828475 -0.000000 0.313073 0.449966 -0.126850 248.499195 315.709473 -0.000000 0.127327 0.156298 -0.363514
5.260000 -74.757314 56.923218 -0.000000 0.320324 0.445889 -0.126776 219.448537 247.611772 -0.000000 0.119667 0.161671 -0.363085
5.265000 -58.521924 74.433143 -0.000000 0.326695 0.441141 -0.126723 188.394463 180.728364 -0.000000 0.112521 0.167477 -0.362545
5.270000 -40.509510 96.458296 -0.000000 0.332205 0.435383 -0.126492 156.459855 115.784431 -0.000000 0.105812 0.173776 -0.362318
5.275000 -20.915056 123.948579 -0.000000 0.336928 0.429116 -0.125587 124.307222 53.620484 -0.000000 0.099480 0.180455 -0.361932
5.280000 -1.087751 157.617228 -0.000000 0.340857 0.422720 -0.124415 92.583643 -4.528553 -0.000000 0.093410 0.184329 -0.361547
5.285000 21.738482 197.691702 -0.000000 0.343500 0.416524 -0.123467 61.640593 -59.917452 -0.000000 0.087616 0.195470 -0.361031
5.290000 44.155934 243.619263 -0.000000 0.346699 0.409790 -0.123367 31.565111 -109.706943 -0.000000 0.082510 0.203597 -0.360614
5.295000 65.800399 294.343358 -0.000000 0.349168 0.402271 -0.122699 2.615955 -152.872851 -0.000000 0.078295 0.211877 -0.360127
5.300000 81.348430 349.229444 -0.000000 0.351375 0.394069 -0.122096 -22.465705 -188.131259 -0.000000 0.074896 0.215628 -0.360302
5.305000 96.837335 404.507515 -0.000000 0.353321 0.385542 -0.122263 -46.638504 -214.052012 -0.000000 0.072083 0.223781 -0.360479
5.310000 108.954627 458.320816 -0.000000 0.355254 0.376668 -0.122320 -67.299206 -230.054840 -0.000000 0.069566 0.232310 -0.360664
